<?xml version="1.0" encoding="utf-8"?>
<!-- Generator: Adobe Illustrator 27.5.0, SVG Export Plug-In . SVG Version: 6.00 Build 0)  -->
<svg version="1.1" xmlns="http://www.w3.org/2000/svg" xmlns:xlink="http://www.w3.org/1999/xlink" x="0px" y="0px"
	 viewBox="0 0 2200 2200" style="enable-background:new 0 0 2200 2200;" xml:space="preserve">
<g id="background">
	<rect style="fill:#FFFFFF;" width="2200" height="2200"/>
</g>
<g id="Objects">
	<g>
		<path style="fill:#F7B003;" d="M1752.279,1163.306l156.196-129.831l-156.196-129.832l94.821-179.654l-194.112-59.914
			l18.694-202.274l-202.283,18.686l-59.914-194.112l-179.654,94.821L1100,225L970.168,381.196l-179.654-94.821l-59.914,194.112
			l-202.274-18.694l18.686,202.283L352.9,723.989l94.821,179.654l-156.196,129.832l156.196,129.831L352.9,1342.96l194.112,59.914
			l-18.694,202.274l202.283-18.686l59.914,194.112l179.654-94.821L1100,1841.949l129.832-156.196l179.654,94.821l59.914-194.112
			l202.274,18.694l-18.686-202.283l194.112-59.914L1752.279,1163.306z M1100,1627.509c-328.076,0-594.034-265.958-594.034-594.034
			S771.924,439.44,1100,439.44s594.034,265.958,594.034,594.034S1428.076,1627.509,1100,1627.509z"/>
		<circle style="fill:#F7B003;" cx="1100" cy="1033.475" r="562.041"/>
		<ellipse style="fill:#D5DBE0;" cx="1100" cy="1951.489" rx="539.635" ry="23.511"/>
	</g>
</g>
</svg>
